<?xml version="1.0" standalone="no"?>
<!DOCTYPE svg PUBLIC "-//W3C//DTD SVG 20010904//EN"
 "http://www.w3.org/TR/2001/REC-SVG-20010904/DTD/svg10.dtd">
<svg version="1.0" xmlns="http://www.w3.org/2000/svg"
 width="757.000000pt" height="624.000000pt" viewBox="0 0 757.000000 624.000000"
 preserveAspectRatio="xMidYMid meet">

<g transform="translate(0.000000,624.000000) scale(0.100000,-0.100000)"
fill="#000000" stroke="none">
<path d="M2551 6018 c-46 -73 -58 -223 -26 -318 14 -41 35 -71 79 -116 34 -34
69 -66 80 -71 16 -9 14 -15 -30 -59 -87 -89 -143 -193 -165 -306 -11 -60 -11
-77 5 -145 10 -43 25 -91 33 -107 13 -25 13 -38 -7 -125 -11 -53 -25 -114 -30
-136 -10 -47 -35 -229 -50 -367 -5 -54 -13 -180 -17 -280 l-6 -183 -37 -50
c-76 -105 -106 -199 -79 -257 5 -13 49 -49 97 -81 68 -44 95 -57 125 -57 42 0
50 5 149 93 35 30 75 64 89 76 l26 20 11 -94 c7 -52 12 -112 12 -133 0 -37 2
-40 34 -46 62 -12 168 14 203 50 7 6 21 34 32 61 85 214 248 520 348 653 42
56 138 155 175 182 33 23 37 9 9 -30 -40 -57 -182 -295 -202 -340 -61 -133
-93 -216 -116 -302 -30 -112 -62 -312 -63 -392 0 -34 -5 -62 -14 -71 -21 -21
-134 -189 -152 -227 -4 -8 -24 -42 -44 -75 -41 -67 -84 -156 -150 -310 -26
-61 -75 -203 -90 -265 -6 -25 -18 -72 -26 -105 -29 -120 -54 -321 -54 -446 0
-126 0 -126 32 -170 40 -57 70 -84 135 -126 29 -18 53 -38 53 -43 0 -4 -13
-11 -30 -15 -16 -4 -41 -20 -55 -37 -24 -28 -25 -34 -25 -170 0 -152 -11 -212
-58 -308 -47 -97 -130 -172 -210 -188 -49 -10 -53 -38 -13 -84 27 -32 29 -38
20 -70 -5 -20 -16 -39 -24 -42 -12 -4 -15 -26 -15 -101 l0 -95 1460 0 1460 0
0 93 c0 79 -3 94 -19 104 -28 18 -32 79 -6 106 45 48 48 55 32 72 -9 8 -24 15
-34 15 -10 0 -38 11 -62 23 -144 77 -221 257 -221 516 0 110 -2 119 -23 139
-13 12 -26 22 -29 22 -4 0 -19 5 -34 10 l-28 11 62 40 c74 48 146 127 163 176
18 56 6 136 -31 193 -17 27 -34 50 -38 52 -10 4 -64 78 -85 115 -35 64 -97
188 -97 195 0 4 -11 31 -24 60 -47 102 -96 275 -127 448 -18 99 -18 405 -1
485 29 130 44 191 52 210 4 11 18 49 31 85 23 65 65 151 116 238 54 90 74 128
134 250 33 68 58 126 54 130 -3 4 -9 2 -13 -3 -10 -15 -115 -85 -127 -85 -5 0
38 47 95 105 l105 105 31 98 c17 53 27 99 22 100 -9 4 -121 -67 -126 -80 -2
-4 -7 -8 -12 -8 -5 0 -32 -16 -61 -35 -30 -19 -57 -35 -62 -35 -4 0 61 68 145
151 l153 152 4 83 c1 46 0 84 -3 84 -6 0 -206 -130 -216 -140 -5 -5 -27 -20
-87 -57 -38 -23 -35 -20 148 163 l161 160 -17 86 c-15 73 -20 85 -34 80 -17
-8 -70 -42 -238 -153 -57 -38 -103 -65 -103 -61 0 4 73 79 161 168 l161 162
-11 35 c-12 35 -54 67 -87 67 -7 0 -82 -45 -165 -100 -84 -55 -157 -100 -161
-100 -5 0 41 50 102 110 62 61 110 115 108 121 -4 13 -132 59 -163 59 -11 0
-54 -22 -95 -50 -41 -27 -79 -50 -85 -50 -5 0 19 29 54 63 l62 64 -28 11 c-15
5 -53 18 -83 27 -30 10 -65 22 -77 28 -17 7 -28 5 -52 -12 -31 -23 -44 -14
-16 9 13 11 13 15 3 22 -19 11 -211 72 -222 70 -4 -2 -14 2 -20 7 -7 6 -68 29
-137 51 -68 23 -133 45 -144 50 -49 21 -147 50 -155 45 -4 -3 -10 -1 -12 4 -1
5 -50 25 -107 45 l-104 35 -35 -24 c-40 -27 -59 -23 -24 5 12 10 22 22 22 27
0 14 -233 85 -255 77 -11 -3 -59 -22 -106 -40 -48 -19 -90 -34 -95 -34 -5 0
-10 16 -11 35 -3 55 -69 146 -118 163 -22 8 -47 17 -55 20 -8 2 -117 39 -241
82 -214 73 -227 76 -238 58z"/>
</g>
</svg>
