<svg xmlns="http://www.w3.org/2000/svg" width="1009.333" height="832" viewBox="0 0 757 624">
<path d="M255.1 22.2c-4.6 7.3-5.8 22.3-2.6 31.8 1.4 4.1 3.5 7.1 7.9 11.6 3.4 3.4 6.9 6.6 8 7.1 1.6.9 1.4 1.5-3 5.9-8.7 
8.9-14.3 19.3-16.5 30.6-1.1 6-1.1 7.7.5 14.5 1 4.3 2.5 9.1 3.3 10.7 1.3 2.5 1.3 3.8-.7 12.5-1.1 5.3-2.5 
11.4-3 13.6-1 4.7-3.5 22.9-5 36.7-.5 5.4-1.3 18-1.7 28l-.6 18.3-3.7 5c-7.6 10.5-10.6 19.9-7.9 25.7.5 1.3 
4.9 4.9 9.7 8.1 6.8 4.4 9.5 5.7 12.5 5.7 4.2 0 5-.5 14.9-9.3 3.5-3 7.5-6.4 8.9-7.6l2.6-2 1.1 9.4c.7 5.2 1.2 
11.2 1.2 13.3 0 3.7.2 4 3.4 4.6 6.2 1.2 16.8-1.4 20.3-5 .7-.6 2.1-3.4 3.2-6.1 8.5-21.4 24.8-52 34.8-65.3 4.2-5.6 
13.8-15.5 17.5-18.2 3.3-2.3 3.7-.9.9 3-4 5.7-18.2 29.5-20.2 34-6.1 13.3-9.3 21.6-11.6 30.2-3 11.2-6.2 31.2-6.3 39.2 
0 3.4-.5 6.2-1.4 7.1-2.1 2.1-13.4 18.9-15.2 22.7-.4.8-2.4 4.2-4.4 7.5-4.1 6.7-8.4 15.6-15 31-2.6 6.1-7.5 20.3-9 26.5-.6 
2.5-1.8 7.2-2.6 10.5-2.9 12-5.4 32.1-5.4 44.6 0 12.6 0 12.6 3.2 17 4 5.7 7 8.4 13.5 12.6 2.9 1.8 5.3 3.8 5.3 4.3 0 .4-1.3 
1.1-3 1.5-1.6.4-4.1 2-5.5 3.7-2.4 2.8-2.5 3.4-2.5 17 0 15.2-1.1 21.2-5.8 30.8-4.7 9.7-13 17.2-21 18.8-4.9 1-5.3 3.8-1.3 
8.4 2.7 3.2 2.9 3.8 2 7-.5 2-1.6 3.9-2.4 4.2-1.2.4-1.5 2.6-1.5 10.1v9.5h292v-9.3c0-7.9-.3-9.4-1.9-10.4-2.8-1.8-3.2-7.9-.6-10.6 
4.5-4.8 4.8-5.5 3.2-7.2-.9-.8-2.4-1.5-3.4-1.5s-3.8-1.1-6.2-2.3C519.7 554 512 536 512 510.1c0-11-.2-11.9-2.3-13.9-1.3-1.2-2.6-2.2-2.9-2.2-.4 
0-1.9-.5-3.4-1l-2.8-1.1 6.2-4c7.4-4.8 14.6-12.7 16.3-17.6 1.8-5.6.6-13.6-3.1-19.3-1.7-2.7-3.4-5-3.8-5.2-1-.4-6.4-7.8-8.5-11.5-3.5-6.4-9.7-18.8-9.7-19.5 
0-.4-1.1-3.1-2.4-6-4.7-10.2-9.6-27.5-12.7-44.8-1.8-9.9-1.8-40.5-.1-48.5 2.9-13 4.4-19.1 5.2-21 .4-1.1 1.8-4.9 3.1-8.5 2.3-6.5 6.5-15.1 11.6-23.8 5.4-9 
7.4-12.8 13.4-25 3.3-6.8 5.8-12.6 5.4-13-.3-.4-.9-.2-1.3.3-1 1.5-11.5 8.5-12.7 8.5-.5 0 3.8-4.7 9.5-10.5l10.5-10.5 3.1-9.8c1.7-5.3 2.7-9.9 2.2-10-.9-.4-12.1 
6.7-12.6 8-.2.4-.7.8-1.2.8s-3.2 1.6-6.1 3.5c-3 1.9-5.7 3.5-6.2 3.5-.4 0 6.1-6.8 14.5-15.1l15.3-15.2.4-8.3c.1-4.6 0-8.4-.3-8.4-.6 0-20.6 13-21.6 14-.5.5-2.7 
2-8.7 5.7-3.8 2.3-3.5 2 14.8-16.3l16.1-16-1.7-8.6c-1.5-7.3-2-8.5-3.4-8-1.7.8-7 4.2-23.8 15.3-5.7 3.8-10.3 6.5-10.3 
6.1s7.3-7.9 16.1-16.8l16.1-16.2-1.1-3.5c-1.2-3.5-5.4-6.7-8.7-6.7-.7 0-8.2 4.5-16.5 10-8.4 5.5-15.7 10-16.1 10-.5 0 
4.1-5 10.2-11 6.2-6.1 11-11.5 10.8-12.1-.4-1.3-13.2-5.9-16.3-5.9-1.1 0-5.4 2.2-9.5 5-4.1 2.7-7.9 5-8.5 5-.5 0 1.9-2.9 
5.4-6.3l6.2-6.4-2.8-1.1c-1.5-.5-5.3-1.8-8.3-2.7-3-1-6.5-2.2-7.7-2.8-1.7-.7-2.8-.5-5.2 1.2-3.1 2.3-4.4 1.4-1.6-.9 1.3-1.1 
1.3-1.5.3-2.2-1.9-1.1-21.1-7.2-22.2-7-.4.2-1.4-.2-2-.7-.7-.6-6.8-2.9-13.7-5.1-6.8-2.3-13.3-4.5-14.4-5-4.9-2.1-14.7-5-15.5-4.5-.4.3-1 
.1-1.2-.4-.1-.5-5-2.5-10.7-4.5l-10.4-3.5-3.5 2.4c-4 2.7-5.9 2.3-2.4-.5 1.2-1 2.2-2.2 2.2-2.7 0-1.4-23.3-8.5-25.5-7.7-1.1.3-5.9 2.2-10.6 
4-4.8 1.9-9 3.4-9.5 3.4s-1-1.6-1.1-3.5c-.3-5.5-6.9-14.6-11.8-16.3-2.2-.8-4.7-1.7-5.5-2-.8-.2-11.7-3.9-24.1-8.2-21.4-7.3-22.7-7.6-23.8-5.8"/>
</svg>